<svg xmlns="http://www.w3.org/2000/svg" viewBox="0 0 1400 840">
  <defs>
    <linearGradient id="bg" x1="0" y1="0" x2="0" y2="1">
      <stop offset="0" stop-color="#efebe3"/>
      <stop offset="1" stop-color="#ddd6cb"/>
    </linearGradient>
    <linearGradient id="sheet" x1="0" y1="0" x2="0" y2="1">
      <stop offset="0" stop-color="#f3eee6"/>
      <stop offset="1" stop-color="#e2dacd"/>
    </linearGradient>
    <filter id="grain">
      <feTurbulence type="fractalNoise" baseFrequency="0.9" numOctaves="2" seed="12"/>
      <feColorMatrix type="saturate" values="0"/>
      <feComponentTransfer><feFuncA type="table" tableValues="0 0.07"/></feComponentTransfer>
    </filter>
  </defs>

  <rect width="1400" height="840" fill="url(#bg)"/>
  <path d="M84 86 H1242 L1318 168 V752 H84 Z" fill="url(#sheet)" stroke="#ada59a" stroke-width="3"/>
  <path d="M1242 86 L1242 168 H1318" fill="none" stroke="#b8b0a4" stroke-width="3"/>

  <line x1="140" y1="156" x2="1220" y2="156" stroke="#9f9b95" stroke-width="2" opacity="0.45"/>
  <g stroke="#a7a39d" stroke-width="2" opacity="0.34">
    <line x1="140" y1="210" x2="1264" y2="210"/>
    <line x1="140" y1="258" x2="1264" y2="258"/>
    <line x1="140" y1="306" x2="1264" y2="306"/>
    <line x1="140" y1="354" x2="1264" y2="354"/>
    <line x1="140" y1="402" x2="1264" y2="402"/>
    <line x1="140" y1="450" x2="1264" y2="450"/>
    <line x1="140" y1="498" x2="1264" y2="498"/>
    <line x1="140" y1="546" x2="1264" y2="546"/>
    <line x1="140" y1="594" x2="1264" y2="594"/>
    <line x1="140" y1="642" x2="1264" y2="642"/>
    <line x1="140" y1="690" x2="1264" y2="690"/>
  </g>

  <rect width="1400" height="840" filter="url(#grain)"/>
</svg>
