<svg xmlns="http://www.w3.org/2000/svg" viewBox="0 0 1400 840">
  <defs>
    <linearGradient id="folder" x1="0" y1="0" x2="0" y2="1">
      <stop offset="0" stop-color="#d8ccb8"/>
      <stop offset="1" stop-color="#c1b299"/>
    </linearGradient>
    <linearGradient id="paper" x1="0" y1="0" x2="0" y2="1">
      <stop offset="0" stop-color="#efe8da"/>
      <stop offset="1" stop-color="#ddd3c2"/>
    </linearGradient>
    <filter id="grain">
      <feTurbulence type="fractalNoise" baseFrequency="0.85" numOctaves="2" seed="22"/>
      <feColorMatrix type="saturate" values="0"/>
      <feComponentTransfer><feFuncA type="table" tableValues="0 0.08"/></feComponentTransfer>
    </filter>
  </defs>

  <rect width="1400" height="840" fill="url(#folder)"/>
  <path d="M72 118 H420 L470 168 H1328 V748 H72 Z" fill="#c8b79c" opacity="0.55"/>
  <rect x="102" y="166" width="1220" height="584" rx="12" fill="url(#paper)" stroke="#aa9a81" stroke-width="3"/>

  <line x1="148" y1="250" x2="1278" y2="250" stroke="#9d907a" stroke-width="2" opacity="0.45"/>
  <g stroke="#9d907a" stroke-width="2" opacity="0.33">
    <line x1="148" y1="304" x2="1278" y2="304"/>
    <line x1="148" y1="352" x2="1278" y2="352"/>
    <line x1="148" y1="400" x2="1278" y2="400"/>
    <line x1="148" y1="448" x2="1278" y2="448"/>
    <line x1="148" y1="496" x2="1278" y2="496"/>
    <line x1="148" y1="544" x2="1278" y2="544"/>
    <line x1="148" y1="592" x2="1278" y2="592"/>
    <line x1="148" y1="640" x2="1278" y2="640"/>
  </g>

  <g transform="translate(1090 622) rotate(-11)" opacity="0.68">
    <rect x="0" y="0" width="210" height="64" fill="none" stroke="#b34747" stroke-width="4"/>
    <text x="18" y="43" font-family="Arial" font-size="38" font-weight="700" fill="#b34747">СЕКРЕТНО</text>
  </g>

  <rect width="1400" height="840" filter="url(#grain)"/>
</svg>
