<svg xmlns="http://www.w3.org/2000/svg" viewBox="0 0 1400 840">
  <defs>
    <linearGradient id="bg" x1="0" y1="0" x2="0" y2="1">
      <stop offset="0" stop-color="#dddde0"/>
      <stop offset="1" stop-color="#c7c9cd"/>
    </linearGradient>
    <linearGradient id="paper" x1="0" y1="0" x2="0" y2="1">
      <stop offset="0" stop-color="#e4e5e8"/>
      <stop offset="1" stop-color="#d0d2d6"/>
    </linearGradient>
    <filter id="grain">
      <feTurbulence type="fractalNoise" baseFrequency="1" numOctaves="2" seed="17"/>
      <feColorMatrix type="saturate" values="0"/>
      <feComponentTransfer><feFuncA type="table" tableValues="0 0.09"/></feComponentTransfer>
    </filter>
  </defs>

  <rect width="1400" height="840" fill="url(#bg)"/>
  <path d="M96 94 H1280 L1322 206 V738 H132 L78 682 V140 Z" fill="url(#paper)" stroke="#8f9298" stroke-width="3"/>

  <line x1="142" y1="170" x2="1264" y2="170" stroke="#858a92" stroke-width="7" opacity="0.52"/>
  <line x1="142" y1="194" x2="1264" y2="194" stroke="#9499a1" stroke-width="4" opacity="0.45"/>

  <line x1="500" y1="248" x2="500" y2="690" stroke="#9aa0a9" stroke-width="2" opacity="0.28"/>
  <line x1="876" y1="248" x2="876" y2="690" stroke="#9aa0a9" stroke-width="2" opacity="0.28"/>

  <g stroke="#8f949c" stroke-width="2" opacity="0.22">
    <line x1="142" y1="248" x2="1264" y2="248"/>
    <line x1="142" y1="292" x2="1264" y2="292"/>
    <line x1="142" y1="336" x2="1264" y2="336"/>
    <line x1="142" y1="380" x2="1264" y2="380"/>
    <line x1="142" y1="424" x2="1264" y2="424"/>
    <line x1="142" y1="468" x2="1264" y2="468"/>
    <line x1="142" y1="512" x2="1264" y2="512"/>
    <line x1="142" y1="556" x2="1264" y2="556"/>
    <line x1="142" y1="600" x2="1264" y2="600"/>
    <line x1="142" y1="644" x2="1264" y2="644"/>
    <line x1="142" y1="688" x2="1264" y2="688"/>
  </g>

  <rect width="1400" height="840" filter="url(#grain)"/>
</svg>
