<svg xmlns="http://www.w3.org/2000/svg" viewBox="0 0 1400 840">
  <defs>
    <linearGradient id="bg" x1="0" y1="0" x2="0" y2="1">
      <stop offset="0" stop-color="#ece7df"/>
      <stop offset="1" stop-color="#d7d0c4"/>
    </linearGradient>
    <linearGradient id="sheet" x1="0" y1="0" x2="0" y2="1">
      <stop offset="0" stop-color="#f3eee6"/>
      <stop offset="1" stop-color="#e2dacd"/>
    </linearGradient>
    <filter id="grain">
      <feTurbulence type="fractalNoise" baseFrequency="0.86" numOctaves="2" seed="13"/>
      <feColorMatrix type="saturate" values="0"/>
      <feComponentTransfer><feFuncA type="table" tableValues="0 0.06"/></feComponentTransfer>
    </filter>
  </defs>

  <rect width="1400" height="840" fill="url(#bg)"/>
  <rect x="62" y="62" width="1276" height="716" rx="12" fill="url(#sheet)" stroke="#aea698" stroke-width="3"/>

  <line x1="114" y1="132" x2="1286" y2="132" stroke="#98948d" stroke-width="2" opacity="0.4"/>
  <g stroke="#a3a09a" stroke-width="2" opacity="0.28">
    <line x1="114" y1="188" x2="1286" y2="188"/>
    <line x1="114" y1="236" x2="1286" y2="236"/>
    <line x1="114" y1="284" x2="1286" y2="284"/>
    <line x1="114" y1="332" x2="1286" y2="332"/>
    <line x1="114" y1="380" x2="1286" y2="380"/>
    <line x1="114" y1="428" x2="1286" y2="428"/>
    <line x1="114" y1="476" x2="1286" y2="476"/>
    <line x1="114" y1="524" x2="1286" y2="524"/>
    <line x1="114" y1="572" x2="1286" y2="572"/>
    <line x1="114" y1="620" x2="1286" y2="620"/>
    <line x1="114" y1="668" x2="1286" y2="668"/>
    <line x1="114" y1="716" x2="1286" y2="716"/>
  </g>

  <rect width="1400" height="840" filter="url(#grain)"/>
</svg>
