<svg xmlns="http://www.w3.org/2000/svg" viewBox="0 0 1400 840">
  <defs>
    <linearGradient id="bg" x1="0" y1="0" x2="0" y2="1">
      <stop offset="0" stop-color="#d9dbde"/>
      <stop offset="1" stop-color="#c4c7cb"/>
    </linearGradient>
    <linearGradient id="paper" x1="0" y1="0" x2="0" y2="1">
      <stop offset="0" stop-color="#e3e4e7"/>
      <stop offset="1" stop-color="#cfd2d6"/>
    </linearGradient>
    <filter id="grain">
      <feTurbulence type="fractalNoise" baseFrequency="0.95" numOctaves="2" seed="19"/>
      <feColorMatrix type="saturate" values="0"/>
      <feComponentTransfer><feFuncA type="table" tableValues="0 0.09"/></feComponentTransfer>
    </filter>
  </defs>

  <rect width="1400" height="840" fill="url(#bg)"/>
  <rect x="58" y="54" width="1284" height="732" fill="url(#paper)" stroke="#8f9399" stroke-width="3"/>

  <line x1="104" y1="120" x2="1296" y2="120" stroke="#888c92" stroke-width="7" opacity="0.55"/>
  <line x1="104" y1="148" x2="1296" y2="148" stroke="#9599a0" stroke-width="4" opacity="0.45"/>

  <line x1="488" y1="210" x2="488" y2="724" stroke="#9aa0a9" stroke-width="2" opacity="0.25"/>
  <line x1="882" y1="210" x2="882" y2="724" stroke="#9aa0a9" stroke-width="2" opacity="0.25"/>

  <g stroke="#8f949c" stroke-width="2" opacity="0.2">
    <line x1="104" y1="210" x2="1296" y2="210"/>
    <line x1="104" y1="252" x2="1296" y2="252"/>
    <line x1="104" y1="294" x2="1296" y2="294"/>
    <line x1="104" y1="336" x2="1296" y2="336"/>
    <line x1="104" y1="378" x2="1296" y2="378"/>
    <line x1="104" y1="420" x2="1296" y2="420"/>
    <line x1="104" y1="462" x2="1296" y2="462"/>
    <line x1="104" y1="504" x2="1296" y2="504"/>
    <line x1="104" y1="546" x2="1296" y2="546"/>
    <line x1="104" y1="588" x2="1296" y2="588"/>
    <line x1="104" y1="630" x2="1296" y2="630"/>
    <line x1="104" y1="672" x2="1296" y2="672"/>
    <line x1="104" y1="714" x2="1296" y2="714"/>
  </g>

  <rect width="1400" height="840" filter="url(#grain)"/>
</svg>
