<svg xmlns="http://www.w3.org/2000/svg" viewBox="0 0 1400 840">
  <defs>
    <linearGradient id="card" x1="0" y1="0" x2="0" y2="1"><stop offset="0" stop-color="#dfd1bb"/><stop offset="1" stop-color="#c8b796"/></linearGradient>
    <filter id="grain"><feTurbulence type="fractalNoise" baseFrequency="0.9" numOctaves="2" seed="25"/><feColorMatrix type="saturate" values="0"/><feComponentTransfer><feFuncA type="table" tableValues="0 0.08"/></feComponentTransfer></filter>
  </defs>

  <rect width="1400" height="840" fill="url(#card)"/>
  <rect x="110" y="96" width="1180" height="648" rx="16" fill="#ddceb5" stroke="#a58f6f" stroke-width="4"/>
  <rect x="110" y="96" width="92" height="648" fill="#b69c77" opacity="0.42"/>

  <g stroke="#9e8562" stroke-width="2" opacity="0.42">
    <line x1="236" y1="180" x2="1244" y2="180"/>
    <line x1="236" y1="236" x2="1244" y2="236"/>
    <line x1="236" y1="292" x2="1244" y2="292"/>
    <line x1="236" y1="348" x2="1244" y2="348"/>
    <line x1="236" y1="404" x2="1244" y2="404"/>
    <line x1="236" y1="460" x2="1244" y2="460"/>
    <line x1="236" y1="516" x2="1244" y2="516"/>
    <line x1="236" y1="572" x2="1244" y2="572"/>
    <line x1="236" y1="628" x2="1244" y2="628"/>
  </g>

  <g fill="#8f7a5c" opacity="0.36">
    <rect x="148" y="168" width="22" height="22" rx="4"/>
    <rect x="148" y="224" width="22" height="22" rx="4"/>
    <rect x="148" y="280" width="22" height="22" rx="4"/>
    <rect x="148" y="336" width="22" height="22" rx="4"/>
    <rect x="148" y="392" width="22" height="22" rx="4"/>
    <rect x="148" y="448" width="22" height="22" rx="4"/>
    <rect x="148" y="504" width="22" height="22" rx="4"/>
    <rect x="148" y="560" width="22" height="22" rx="4"/>
    <rect x="148" y="616" width="22" height="22" rx="4"/>
  </g>

  <rect width="1400" height="840" filter="url(#grain)"/>
</svg>