<svg xmlns="http://www.w3.org/2000/svg" viewBox="0 0 1440 720" role="img" aria-label="Силуэт сената">
  <defs>
    <linearGradient id="g1" x1="0" y1="0" x2="0" y2="1">
      <stop offset="0%" stop-color="#9fb0c2" stop-opacity="0.9"/>
      <stop offset="100%" stop-color="#6d7d90" stop-opacity="0.9"/>
    </linearGradient>
    <linearGradient id="g2" x1="0" y1="0" x2="0" y2="1">
      <stop offset="0%" stop-color="#7b8998" stop-opacity="0.9"/>
      <stop offset="100%" stop-color="#5a6674" stop-opacity="0.9"/>
    </linearGradient>
  </defs>

  <rect x="0" y="630" width="1440" height="90" fill="#2e3744"/>

  <g transform="translate(720 390)">
    <ellipse cx="0" cy="-150" rx="210" ry="95" fill="url(#g1)" opacity="0.92"/>
    <rect x="-230" y="-150" width="460" height="36" fill="url(#g2)"/>

    <rect x="-305" y="-114" width="610" height="232" fill="url(#g1)"/>
    <rect x="-330" y="108" width="660" height="20" fill="url(#g2)"/>
    <rect x="-360" y="128" width="720" height="20" fill="#445262"/>

    <g fill="#5f6d7c">
      <rect x="-270" y="-100" width="30" height="208"/>
      <rect x="-210" y="-100" width="30" height="208"/>
      <rect x="-150" y="-100" width="30" height="208"/>
      <rect x="-90" y="-100" width="30" height="208"/>
      <rect x="-30" y="-100" width="30" height="208"/>
      <rect x="30" y="-100" width="30" height="208"/>
      <rect x="90" y="-100" width="30" height="208"/>
      <rect x="150" y="-100" width="30" height="208"/>
      <rect x="210" y="-100" width="30" height="208"/>
      <rect x="270" y="-100" width="30" height="208"/>
    </g>

    <rect x="-52" y="0" width="104" height="108" fill="#4e5b6b"/>
    <rect x="-340" y="-140" width="680" height="22" fill="#495665"/>
  </g>
</svg>